<svg xmlns="http://www.w3.org/2000/svg" width="69" height="45"><path d="M56.5 12.5L69 0H53.5l-3 3-3-3H46 23h-1.5l-3 3-3-3H0l12.5 12.5 4-4-4-4-2 2L12 8l.5-.5 1 1-1 1L5 2h9l4.5 4.5L23 2h23l4.5 4.5L55 2h9l-7.5 7.5-1-1 1-1 .5.5 1.5-1.5-2-2-4 4 4 4zm3-2L61 9l2.5 2.5L61 14v1 15 1l2.5 2.5L61 36l-1.5-1.5 1-1L58 31l1-1V15l-1-1 2.5-2.5-1-1zm-47 22L0 45h15.5l3-3 3 3H23h23 1.5l3-3 3 3H69L56.5 32.5l-4 4 4 4 2-2L57 37l-.5.5-1-1 1-1L64 43h-9l-4.5-4.5L46 43H23l-4.5-4.5L14 43H5l7.5-7.5 1 1-1 1-.5-.5-1.5 1.5 2 2 4-4-4-4zm-3 2L8 36l-2.5-2.5L8 31v-1-15-1l-2.5-2.5L8 9l1.5 1.5-1 1L11 14l-1 1v15l1 1-2.5 2.5 1 1z"/></svg>