<svg xmlns="http://www.w3.org/2000/svg" width="69" height="45"><path fill-rule="evenodd" d="M69 0 56.5 12.5l-4-4 4-4 2 2L57 8l-.5-.5-1 1 1 1L64 2h-9l-4.5 4.5L46 2H23l-4.5 4.5L14 2H5l7.5 7.5 1-1-1-1-.5.5-1.5-1.5 2-2 4 4-4 4L0 0v45l12.5-12.5 4 4-4 4-2-2L12 37l.5.5 1-1-1-1L5 43h9l4.5-4.5L23 43h23l4.5-4.5L55 43h9l-7.5-7.5-1 1 1 1 .5-.5 1.5 1.5-2 2-4-4 4-4L69 45V0ZM53.5 45l-3-3-3 3h6Zm-32 0-3-3-3 3h6Zm-6-45 3 3 3-3h-6Zm32 0 3 3 3-3h-6ZM61 9l-1.5 1.5 1 1L58 14l1 1v15l-1 1 2.5 2.5-1 1L61 36l2.5-2.5L61 31V14l2.5-2.5L61 9ZM8 36l1.5-1.5-1-1L11 31l-1-1V15l1-1-2.5-2.5 1-1L8 9l-2.5 2.5L8 14v17l-2.5 2.5L8 36Z"/></svg>